<svg width="21" height="23" viewBox="0 0 21 23" fill="none" xmlns="http://www.w3.org/2000/svg">
<path fill-rule="evenodd" clip-rule="evenodd" d="M16.406 3.02498H19.251C20.217 3.02498 21 3.84698 21 4.86198V21.164C21 22.179 20.217 23 19.251 23H1.75C0.784 23 0 22.179 0 21.164V4.86198C0 3.84698 0.784 3.02498 1.75 3.02498H4.593V1.64798C4.593 1.26698 4.887 0.958984 5.25 0.958984C5.612 0.958984 5.906 1.26698 5.906 1.64798V3.02498H9.844V1.64798C9.844 1.26698 10.138 0.958984 10.501 0.958984C10.862 0.958984 11.156 1.26698 11.156 1.64798V3.02498H15.094V1.64798C15.094 1.26698 15.387 0.958984 15.75 0.958984C16.112 0.958984 16.406 1.26698 16.406 1.64798V3.02498ZM19.5646 21.4841C19.6465 21.398 19.6909 21.2829 19.688 21.1641H19.689V4.86208C19.689 4.60908 19.493 4.40308 19.252 4.40308H16.407V5.78108C16.407 6.16208 16.113 6.47008 15.751 6.47008C15.388 6.47008 15.095 6.16208 15.095 5.78108V4.40308H11.157V5.78108C11.157 6.16208 10.863 6.47008 10.502 6.47008C10.139 6.47008 9.84499 6.16208 9.84499 5.78108V4.40308H5.90698V5.78108C5.90698 6.16208 5.61298 6.47008 5.25098 6.47008C4.88798 6.47008 4.59398 6.16208 4.59398 5.78108V4.40308H1.74998C1.50262 4.40962 1.30695 4.61467 1.31198 4.86208V21.1641C1.30695 21.4115 1.50262 21.6165 1.74998 21.6231H19.251C19.3698 21.6202 19.4826 21.5702 19.5646 21.4841Z" fill="black"/>
<path fill-rule="evenodd" clip-rule="evenodd" d="M4.59399 9.2251H7.21899V11.2911H4.59399V9.2251ZM4.59399 12.6681H7.21899V14.7351H4.59399V12.6681ZM7.21899 16.1121H4.59399V18.1781H7.21899V16.1121ZM9.18799 16.1121H11.813V18.1781H9.18799V16.1121ZM11.813 12.6682H9.18799V14.7352H11.813V12.6682ZM9.18799 9.2251H11.813V11.2911H9.18799V9.2251ZM16.406 16.1121H13.781V18.1781H16.406V16.1121ZM13.781 12.6682H16.406V14.7352H13.781V12.6682ZM16.406 9.2251H13.781V11.2911H16.406V9.2251Z" fill="black"/>
</svg>
